
<svg class="w-full h-full" viewBox="0 0 194 45" fill="none" xmlns="http://www.w3.org/2000/svg">
<path d="M5.3819 44.288C4.87795 44.288 4.45275 43.913 4.38975 43.413L0.141761 9.70102C0.0665127 9.10385 0.53202 8.576 1.13392 8.576H6.13239C6.343 8.576 6.52124 8.73156 6.54974 8.94023L7.03652 12.5045C7.05467 12.6375 7.24991 12.6278 7.25488 12.4937V12.4937C7.2556 12.4743 7.2615 12.4553 7.27202 12.4389C8.16647 11.0431 9.37712 9.96343 10.904 9.2C12.44 8.4 14.216 8 16.232 8C18.696 8 20.92 8.608 22.904 9.824C24.888 11.04 26.456 12.672 27.608 14.72C28.792 16.768 29.384 19.072 29.384 21.632C29.384 24.16 28.808 26.464 27.656 28.544C26.504 30.624 24.936 32.272 22.952 33.488C20.968 34.672 18.712 35.264 16.184 35.264C14.296 35.264 12.552 34.896 10.952 34.16C9.50983 33.4536 8.33838 32.4766 7.43761 31.2288C7.29665 31.0336 7.31072 30.7688 7.46204 30.5814V30.5814C7.75875 30.2141 8.34965 30.3633 8.4364 30.8275L10.7308 43.1043C10.8457 43.7195 10.3737 44.288 9.74778 44.288H5.3819ZM15.464 29.504C16.904 29.504 18.184 29.168 19.304 28.496C20.424 27.824 21.288 26.896 21.896 25.712C22.536 24.528 22.856 23.168 22.856 21.632C22.856 20.096 22.536 18.752 21.896 17.6C21.288 16.416 20.424 15.488 19.304 14.816C18.184 14.112 16.904 13.76 15.464 13.76C14.088 13.76 12.84 14.096 11.72 14.768C10.632 15.44 9.76798 16.384 9.12798 17.6C8.51998 18.784 8.21598 20.128 8.21598 21.632C8.21598 23.168 8.51998 24.528 9.12798 25.712C9.76798 26.896 10.632 27.824 11.72 28.496C12.84 29.168 14.088 29.504 15.464 29.504Z" fill="#101828"/>
<path d="M170.419 36.336C169.866 36.336 169.419 35.8883 169.419 35.336V0.999999C169.419 0.447715 169.866 0 170.419 0H174.707C175.259 0 175.707 0.447715 175.707 1V22.6762C175.707 23.2403 175.163 23.6449 174.623 23.4828V23.4828C174.02 23.3021 173.821 22.5492 174.256 22.0945L185.299 10.5333C185.488 10.3357 185.749 10.224 186.022 10.224H191.144C192.014 10.224 192.469 11.2589 191.88 11.9002L184.288 20.1728C183.983 20.5053 183.938 21.0009 184.179 21.3825L192.643 34.8025C193.064 35.4684 192.585 36.336 191.798 36.336H186.962C186.619 36.336 186.3 36.16 186.116 35.8698L178.511 23.8212C178.2 23.3275 178.478 22.6747 179.05 22.5574V22.5574C179.846 22.3939 180.383 23.3498 179.828 23.9447L175.605 28.4777C175.303 28.8011 174.785 28.4377 174.987 28.0444V28.0444C175.169 27.6886 175.707 27.8183 175.707 28.2181V35.336C175.707 35.8883 175.259 36.336 174.707 36.336H170.419Z" fill="#101828"/>
<path d="M151.834 36.912C149.274 36.912 146.938 36.32 144.826 35.136C142.746 33.952 141.082 32.336 139.834 30.288C138.618 28.24 138.01 25.904 138.01 23.28C138.01 20.656 138.618 18.32 139.834 16.272C141.082 14.224 142.746 12.608 144.826 11.424C146.906 10.24 149.242 9.64799 151.834 9.64799C154.394 9.64799 156.714 10.24 158.794 11.424C160.874 12.608 162.522 14.224 163.738 16.272C164.986 18.288 165.61 20.624 165.61 23.28C165.61 25.904 164.986 28.24 163.738 30.288C162.49 32.336 160.826 33.952 158.746 35.136C156.666 36.32 154.362 36.912 151.834 36.912ZM151.834 31.152C153.242 31.152 154.474 30.816 155.53 30.144C156.618 29.472 157.466 28.544 158.074 27.36C158.714 26.144 159.034 24.784 159.034 23.28C159.034 21.744 158.714 20.4 158.074 19.248C157.466 18.064 156.618 17.136 155.53 16.464C154.474 15.76 153.242 15.408 151.834 15.408C150.394 15.408 149.13 15.76 148.042 16.464C146.954 17.136 146.09 18.064 145.45 19.248C144.842 20.4 144.538 21.744 144.538 23.28C144.538 24.784 144.842 26.144 145.45 27.36C146.09 28.544 146.954 29.472 148.042 30.144C149.13 30.816 150.394 31.152 151.834 31.152Z" fill="#101828"/>
<path d="M121.482 36.912C118.922 36.912 116.586 36.32 114.474 35.136C112.394 33.952 110.73 32.336 109.482 30.288C108.266 28.24 107.658 25.904 107.658 23.28C107.658 20.656 108.266 18.32 109.482 16.272C110.73 14.224 112.394 12.608 114.474 11.424C116.554 10.24 118.89 9.64799 121.482 9.64799C124.042 9.64799 126.362 10.24 128.442 11.424C130.522 12.608 132.17 14.224 133.386 16.272C134.634 18.288 135.258 20.624 135.258 23.28C135.258 25.904 134.634 28.24 133.386 30.288C132.138 32.336 130.474 33.952 128.394 35.136C126.314 36.32 124.01 36.912 121.482 36.912ZM121.482 31.152C122.89 31.152 124.122 30.816 125.178 30.144C126.266 29.472 127.114 28.544 127.722 27.36C128.362 26.144 128.682 24.784 128.682 23.28C128.682 21.744 128.362 20.4 127.722 19.248C127.114 18.064 126.266 17.136 125.178 16.464C124.122 15.76 122.89 15.408 121.482 15.408C120.042 15.408 118.778 15.76 117.69 16.464C116.602 17.136 115.738 18.064 115.098 19.248C114.49 20.4 114.186 21.744 114.186 23.28C114.186 24.784 114.49 26.144 115.098 27.36C115.738 28.544 116.602 29.472 117.69 30.144C118.778 30.816 120.042 31.152 121.482 31.152Z" fill="#101828"/>
<path d="M91.6798 36.912C89.7918 36.912 88.0478 36.544 86.4478 35.808C84.9317 35.0654 83.7148 34.0237 82.797 32.6828C82.7386 32.5974 82.7323 32.487 82.7786 32.3944V32.3944C82.9154 32.1208 83.3278 32.2182 83.3278 32.5241V35.3734C83.3278 35.9051 82.8968 36.336 82.3652 36.336H78.4238C77.8715 36.336 77.4238 35.8883 77.4238 35.336V0.999999C77.4238 0.447715 77.8715 0 78.4238 0H82.7118C83.264 0 83.7118 0.447715 83.7118 1V14.0934C83.7118 14.5116 83.1782 14.6877 82.9293 14.3516V14.3516C82.8223 14.2073 82.8146 14.0114 82.9158 13.863C83.7943 12.5751 84.9556 11.5701 86.3998 10.848C87.9358 10.048 89.7118 9.648 91.7278 9.648C94.1918 9.648 96.4158 10.256 98.3998 11.472C100.384 12.688 101.952 14.32 103.104 16.368C104.288 18.416 104.88 20.72 104.88 23.28C104.88 25.808 104.304 28.112 103.152 30.192C102 32.272 100.432 33.92 98.4478 35.136C96.4638 36.32 94.2078 36.912 91.6798 36.912ZM90.9598 31.152C92.3998 31.152 93.6798 30.816 94.7998 30.144C95.9198 29.472 96.7838 28.544 97.3918 27.36C98.0318 26.176 98.3518 24.816 98.3518 23.28C98.3518 21.744 98.0318 20.4 97.3918 19.248C96.7838 18.064 95.9198 17.136 94.7998 16.464C93.6798 15.76 92.3998 15.408 90.9598 15.408C89.5838 15.408 88.3358 15.744 87.2158 16.416C86.1278 17.088 85.2638 18.032 84.6238 19.248C84.0158 20.432 83.7118 21.776 83.7118 23.28C83.7118 24.816 84.0158 26.176 84.6238 27.36C85.2638 28.544 86.1278 29.472 87.2158 30.144C88.3358 30.816 89.5838 31.152 90.9598 31.152Z" fill="#101828"/>
<path d="M61.3771 36.912C58.6891 36.912 56.3371 36.304 54.3211 35.088C52.3051 33.872 50.7371 32.224 49.6171 30.144C48.4971 28.064 47.9371 25.76 47.9371 23.232C47.9371 20.608 48.4971 18.288 49.6171 16.272C50.7691 14.224 52.3211 12.608 54.2731 11.424C56.2571 10.24 58.4651 9.64799 60.8971 9.64799C62.9451 9.64799 64.7371 9.984 66.2731 10.656C67.8411 11.328 69.1691 12.256 70.2571 13.44C71.3451 14.624 72.1771 15.984 72.7531 17.52C73.3291 19.024 73.6171 20.656 73.6171 22.416C73.6171 22.864 73.5851 23.328 73.5211 23.808C73.5077 24.0095 73.4858 24.1997 73.4555 24.3786C73.3852 24.7932 73.0012 25.056 72.5807 25.056H54.1211C53.5688 25.056 53.1211 24.6083 53.1211 24.056V21.256C53.1211 20.7037 53.5688 20.256 54.1211 20.256H67.744C68.3836 20.256 68.6569 21.0688 68.1472 21.4552V21.4552C67.6587 21.8255 66.9287 21.3867 66.9217 20.7738C66.9127 19.9859 66.7765 19.2533 66.5131 18.576C66.0971 17.424 65.3931 16.512 64.4011 15.84C63.4411 15.168 62.2731 14.832 60.8971 14.832C59.5851 14.832 58.4171 15.168 57.3931 15.84C56.3691 16.48 55.5851 17.44 55.0411 18.72C54.5364 19.9504 54.3426 21.4451 54.4599 23.2043C54.4633 23.2545 54.463 23.3054 54.4593 23.3556C54.3438 24.9249 54.5537 26.3237 55.0891 27.552C55.6651 28.768 56.4971 29.712 57.5851 30.384C58.7051 31.056 59.9851 31.392 61.4251 31.392C62.8651 31.392 64.0811 31.088 65.0731 30.48C65.8188 30.0373 66.4457 29.4842 66.9538 28.8209C67.2764 28.3998 67.8455 28.2147 68.3217 28.4483L71.7214 30.116C72.194 30.3479 72.4114 30.9101 72.159 31.372C71.6631 32.2797 70.9971 33.1024 70.1611 33.84C69.0731 34.8 67.7771 35.552 66.2731 36.096C64.8011 36.64 63.1691 36.912 61.3771 36.912Z" fill="#101828"/>
<path d="M33 36.336C32.4477 36.336 32 35.8883 32 35.336V11.224C32 10.6717 32.4477 10.224 33 10.224H36.904C37.4563 10.224 37.904 10.6717 37.904 11.224V15.1423C37.904 15.3802 37.5875 15.4622 37.4719 15.2543V15.2543C37.4413 15.1992 37.4346 15.1336 37.4538 15.0736C38.0627 13.1721 38.9967 11.8436 40.256 11.088C41.568 10.32 43.136 9.936 44.96 9.936H45.496C46.0483 9.936 46.496 10.3837 46.496 10.936V14.504C46.496 15.0563 46.0483 15.504 45.496 15.504H44.24C42.448 15.504 41.008 16.064 39.92 17.184C38.832 18.272 38.288 19.808 38.288 21.792V35.336C38.288 35.8883 37.8403 36.336 37.288 36.336H33Z" fill="#101828"/>
</svg>
